# 3ds Max Wavefront OBJ Exporter v0.97b - (c)2007 guruware
# File Created: 23.03.2021 22:55:12

mtllib cuttingobj.mtl

#
# object log
#

v  686.6950 0.0000 -10.4912
v  695.2698 0.0000 -42.4928
v  695.2698 0.0000 -25.3432
v  693.5131 28.6656 -42.1794
v  693.5131 28.6656 -25.8139
v  686.6951 0.0000 -57.3447
v  685.3303 28.6656 -56.3523
v  671.8431 0.0000 -65.9195
v  671.1574 28.6656 -64.5350
v  654.6935 0.0000 -65.9195
v  654.7919 28.6656 -64.5350
v  639.8416 0.0000 -57.3447
v  640.6190 28.6656 -56.3523
v  631.2668 0.0000 -42.4928
v  632.4363 28.6656 -42.1794
v  631.2668 0.0000 -25.3432
v  632.4363 28.6656 -25.8139
v  639.8416 0.0000 -10.4912
v  640.6190 28.6656 -11.6410
v  654.6935 0.0000 -1.9165
v  654.7919 28.6656 -3.4583
v  671.8431 0.0000 -1.9164
v  671.1574 28.6656 -3.4583
v  685.3303 28.6656 -11.6410
v  685.4147 55.8635 -10.8343
v  693.0483 55.8635 -41.5906
v  685.3088 55.8635 -57.1267
v  672.0939 55.8635 -3.7914
v  694.5316 42.9073 -42.2950
v  694.5316 42.9073 -25.5410
v  686.1547 42.9073 -56.8043
v  671.6453 42.9073 -65.1813
v  654.8913 42.9073 -65.1813
v  640.3820 42.9073 -56.8043
v  632.0050 42.9073 -42.2950
v  632.0049 42.9073 -25.5410
v  640.3820 42.9073 -11.0316
v  654.8913 42.9073 -2.6546
v  671.6453 42.9073 -2.6546
v  686.1547 42.9073 -11.0316
v  694.7753 47.1834 -42.3602
v  693.4119 55.8635 -25.8410
v  694.7753 47.1834 -25.4757
v  686.3330 47.1834 -56.9827
v  671.7106 47.1834 -65.4249
v  671.3254 55.8635 -63.9874
v  654.8260 47.1834 -65.4249
v  654.4157 55.8635 -64.8826
v  640.2036 47.1834 -56.9827
v  641.4843 55.8635 -56.9045
v  631.7614 47.1834 -42.3602
v  632.3472 55.8635 -42.2033
v  631.7614 47.1834 -25.4757
v  631.9162 55.8635 -24.4660
v  640.2036 47.1834 -10.8533
v  640.0712 55.8635 -11.3483
v  654.8260 47.1834 -2.4110
v  654.9326 55.8635 -2.8088
v  671.7106 47.1834 -2.4110
v  686.3330 47.1834 -10.8533
v  695.5781 42.8434 -42.5753
v  695.8217 47.1195 -42.6406
v  695.8217 47.1195 -25.1953
v  695.5781 42.8434 -25.2606
v  686.9207 42.8434 -57.5704
v  687.0991 47.1195 -57.7487
v  671.9257 42.8434 -66.2277
v  671.9910 47.1195 -66.4714
v  654.6110 42.8434 -66.2277
v  654.5457 47.1195 -66.4714
v  639.6159 42.8434 -57.5704
v  639.4376 47.1195 -57.7487
v  630.9586 42.8434 -42.5753
v  630.7149 47.1195 -42.6406
v  630.9586 42.8434 -25.2606
v  630.7149 47.1195 -25.1953
v  639.6159 42.8434 -10.2656
v  639.4376 47.1195 -10.0872
v  654.6109 42.8434 -1.6082
v  654.5457 47.1195 -1.3646
v  671.9257 42.8434 -1.6082
v  671.9910 47.1195 -1.3646
v  686.9207 42.8434 -10.2656
v  687.0991 47.1195 -10.0872
v  699.7338 44.5172 -26.3708
v  699.7338 44.5172 -27.1944
v  700.8451 44.5172 -27.1944
v  700.8451 44.5172 -26.3708
v  699.7338 45.4921 -26.3708
v  700.8451 45.4921 -26.3708
v  700.8451 45.4921 -27.1944
v  699.7338 45.4921 -27.1944
v  700.8451 44.5172 -41.5942
v  699.7338 44.5172 -41.5942
v  699.7338 45.4921 -41.5942
v  700.8451 45.4921 -41.5942
v  699.7338 44.5172 -40.7865
v  700.8451 44.5172 -40.7865
v  700.8451 45.4921 -40.7865
v  699.7338 45.4921 -40.7865
v  695.5744 45.4921 -41.5942
v  695.5744 45.4921 -40.7865
v  695.5744 44.5172 -41.5942
v  695.5744 44.5172 -40.7865
v  695.5744 44.5172 -26.3708
v  695.5744 44.5172 -27.1944
v  695.5744 45.4921 -26.3708
v  695.5744 45.4921 -27.1944
v  626.8134 44.5172 -41.5942
v  626.8134 44.5172 -40.7706
v  625.7021 44.5172 -40.7706
v  625.7021 44.5172 -41.5942
v  626.8134 45.4921 -41.5942
v  625.7021 45.4921 -41.5942
v  625.7021 45.4921 -40.7706
v  626.8134 45.4921 -40.7706
v  625.7021 44.5172 -26.3708
v  626.8134 44.5172 -26.3708
v  626.8134 45.4921 -26.3708
v  625.7021 45.4921 -26.3708
v  626.8134 44.5172 -27.1786
v  625.7021 44.5172 -27.1786
v  625.7021 45.4921 -27.1786
v  626.8134 45.4921 -27.1786
v  630.9728 45.4921 -26.3708
v  630.9728 45.4921 -27.1786
v  630.9728 44.5172 -26.3708
v  630.9728 44.5172 -27.1786
v  630.9728 44.5172 -41.5942
v  630.9728 44.5172 -40.7706
v  630.9728 45.4921 -41.5942
v  630.9728 45.4921 -40.7706
# 132 vertices

vn 0.5496 -0.6300 0.5487
vn 0.7503 -0.6300 -0.2004
vn 0.7506 -0.6294 0.2011
vn 0.9656 -0.0046 -0.2601
vn 0.9659 -0.0053 0.2588
vn 0.5491 -0.6314 -0.5475
vn 0.7055 -0.0026 -0.7087
vn 0.2016 -0.6334 -0.7471
vn 0.2562 0.0001 -0.9666
vn -0.1987 -0.6354 -0.7462
vn -0.2610 0.0028 -0.9653
vn -0.5447 -0.6369 -0.5456
vn -0.7080 0.0048 -0.7062
vn -0.7443 -0.6374 -0.1994
vn -0.9659 0.0055 -0.2588
vn -0.7445 -0.6369 0.2002
vn -0.9663 0.0048 0.2575
vn -0.5452 -0.6354 0.5468
vn -0.7087 0.0028 0.7055
vn -0.1990 -0.6334 0.7478
vn -0.2614 0.0001 0.9652
vn 0.2018 -0.6314 0.7487
vn 0.2566 -0.0026 0.9665
vn 0.7062 -0.0046 0.7080
vn 0.5143 0.6733 0.5312
vn 0.6573 0.7366 -0.1589
vn 0.5145 0.6673 -0.5385
vn 0.1962 0.7126 0.6736
vn 0.5633 -0.8126 -0.1498
vn 0.5619 -0.8134 0.1506
vn 0.4156 -0.8104 -0.4129
vn 0.1548 -0.8074 -0.5693
vn -0.1519 -0.8043 -0.5744
vn -0.4215 -0.8021 -0.4231
vn -0.5779 -0.8013 -0.1549
vn -0.5766 -0.8021 0.1557
vn -0.4188 -0.8043 0.4215
vn -0.1506 -0.8074 0.5705
vn 0.1535 -0.8104 0.5654
vn 0.4129 -0.8126 0.4114
vn 0.5643 0.8110 -0.1542
vn 0.6826 0.7127 0.1616
vn 0.5837 0.7967 0.1564
vn 0.4571 0.7705 -0.4442
vn 0.1556 0.7992 -0.5806
vn 0.1731 0.7256 -0.6660
vn -0.1614 0.7630 -0.6259
vn -0.1936 0.6636 -0.7226
vn -0.4469 0.7823 -0.4341
vn -0.4977 0.6986 -0.5140
vn -0.6168 0.7695 -0.1653
vn -0.7041 0.6782 -0.2105
vn -0.6484 0.7440 0.1613
vn -0.7353 0.6420 0.2171
vn -0.4583 0.7571 0.4655
vn -0.5217 0.6672 0.5317
vn -0.1674 0.7626 0.6248
vn -0.1715 0.6657 0.7262
vn 0.1510 0.7913 0.5925
vn 0.4556 0.7709 0.4452
vn 0.6961 -0.6933 -0.1865
vn 0.7644 0.6114 -0.2048
vn 0.7644 0.6114 0.2048
vn 0.6961 -0.6933 0.1865
vn 0.5096 -0.6933 -0.5096
vn 0.5596 0.6114 -0.5596
vn 0.1865 -0.6933 -0.6961
vn 0.2048 0.6114 -0.7644
vn -0.1865 -0.6933 -0.6961
vn -0.2048 0.6114 -0.7644
vn -0.5096 -0.6933 -0.5096
vn -0.5596 0.6114 -0.5596
vn -0.6961 -0.6933 -0.1865
vn -0.7644 0.6114 -0.2048
vn -0.6961 -0.6933 0.1865
vn -0.7644 0.6114 0.2048
vn -0.5096 -0.6933 0.5096
vn -0.5596 0.6114 0.5596
vn -0.1865 -0.6933 0.6961
vn -0.2048 0.6114 0.7644
vn 0.1865 -0.6933 0.6961
vn 0.2048 0.6114 0.7644
vn 0.5096 -0.6933 0.5096
vn 0.5596 0.6114 0.5596
vn -0.0000 -0.7071 0.7071
vn -0.3015 -0.9045 -0.3015
vn 0.7071 -0.7071 -0.0000
vn 0.5774 -0.5774 0.5774
vn -0.0000 0.7071 0.7071
vn 0.5774 0.5774 0.5774
vn 0.7071 0.7071 -0.0000
vn -0.3015 0.9045 -0.3015
vn 0.5773 -0.5774 -0.5774
vn -0.0000 -0.7071 -0.7071
vn -0.0000 0.7071 -0.7071
vn 0.5773 0.5774 -0.5774
vn -0.3015 -0.9045 0.3015
vn -0.3015 0.9045 0.3015
vn 0.0000 0.7071 0.7071
vn 0.0000 -0.7071 0.7071
vn 0.3015 -0.9045 0.3015
vn -0.7071 -0.7071 -0.0000
vn -0.5774 -0.5774 -0.5774
vn -0.5774 0.5774 -0.5774
vn -0.7071 0.7071 -0.0000
vn 0.3015 0.9045 0.3015
vn -0.5773 -0.5773 0.5774
vn -0.5773 0.5773 0.5774
vn 0.3015 -0.9045 -0.3015
vn -0.7071 -0.7071 0.0000
vn -0.7071 0.7071 0.0000
vn 0.3015 0.9045 -0.3015
vn 0.0000 0.7071 -0.7071
vn 0.0000 -0.7071 -0.7071
# 114 vertex normals

vt 0.4038 0.3148 0.0000
vt 0.5607 0.2728 0.0000
vt 0.4879 0.3148 0.0000
vt 0.2854 0.4169 0.0000
vt 0.2854 0.4990 0.0000
vt 0.1449 0.4996 0.0000
vt 0.1449 0.4168 0.0000
vt 0.2854 0.5810 0.0000
vt 0.1449 0.5823 0.0000
vt 0.2855 0.6632 0.0000
vt 0.1451 0.6648 0.0000
vt 0.2857 0.7456 0.0000
vt 0.1453 0.7470 0.0000
vt 0.2861 0.8281 0.0000
vt 0.1456 0.8290 0.0000
vt 0.2864 0.9111 0.0000
vt 0.1459 0.9104 0.0000
vt 0.2858 0.9946 0.0000
vt 0.1460 0.9910 0.0000
vt 0.2858 0.0045 0.0000
vt 0.2864 0.0879 0.0000
vt 0.1458 0.0873 0.0000
vt 0.1462 0.0066 0.0000
vt 0.2860 0.1706 0.0000
vt 0.1454 0.1690 0.0000
vt 0.2856 0.2529 0.0000
vt 0.1451 0.2514 0.0000
vt 0.2855 0.3350 0.0000
vt 0.1449 0.3340 0.0000
vt 0.5528 0.3604 0.0000
vt 0.5866 0.5121 0.0000
vt 0.5468 0.5873 0.0000
vt 0.4883 0.3243 0.0000
vt 0.0752 0.4991 0.0000
vt 0.0751 0.4168 0.0000
vt 0.0750 0.5814 0.0000
vt 0.0754 0.6638 0.0000
vt 0.0755 0.7464 0.0000
vt 0.0759 0.8291 0.0000
vt 0.0760 0.9118 0.0000
vt 0.0768 0.9941 0.0000
vt 0.0759 0.0869 0.0000
vt 0.0771 0.0046 0.0000
vt 0.0755 0.1695 0.0000
vt 0.0753 0.2520 0.0000
vt 0.0750 0.3344 0.0000
vt 0.0447 0.4991 0.0000
vt 0.0014 0.4975 0.0000
vt 0.0013 0.4172 0.0000
vt 0.0442 0.4168 0.0000
vt 0.0436 0.5815 0.0000
vt 0.0010 0.5853 0.0000
vt 0.0446 0.6640 0.0000
vt 0.0016 0.6641 0.0000
vt 0.0441 0.7467 0.0000
vt 0.0016 0.7492 0.0000
vt 0.0452 0.8295 0.0000
vt 0.0025 0.8255 0.0000
vt 0.0451 0.9125 0.0000
vt 0.0026 0.9117 0.0000
vt 0.0440 0.9953 0.0000
vt 0.0012 0.9990 0.0000
vt 0.0448 0.0858 0.0000
vt 0.0023 0.0841 0.0000
vt 0.0021 0.0082 0.0000
vt 0.0448 0.0029 0.0000
vt 0.0444 0.1690 0.0000
vt 0.0020 0.1691 0.0000
vt 0.0445 0.2518 0.0000
vt 0.0017 0.2552 0.0000
vt 0.0436 0.3344 0.0000
vt 0.0010 0.3313 0.0000
vt 0.0703 0.4991 0.0000
vt 0.0496 0.4991 0.0000
vt 0.0492 0.4168 0.0000
vt 0.0701 0.4167 0.0000
vt 0.0698 0.5815 0.0000
vt 0.0488 0.5816 0.0000
vt 0.0704 0.6640 0.0000
vt 0.0496 0.6641 0.0000
vt 0.0703 0.7466 0.0000
vt 0.0493 0.7467 0.0000
vt 0.0709 0.8294 0.0000
vt 0.0501 0.8296 0.0000
vt 0.0710 0.9126 0.0000
vt 0.0502 0.9129 0.0000
vt 0.0713 0.9967 0.0000
vt 0.0497 0.9974 0.0000
vt 0.0708 0.0859 0.0000
vt 0.0499 0.0855 0.0000
vt 0.0504 0.0010 0.0000
vt 0.0718 0.0019 0.0000
vt 0.0704 0.1691 0.0000
vt 0.0495 0.1688 0.0000
vt 0.0703 0.2518 0.0000
vt 0.0495 0.2517 0.0000
vt 0.0698 0.3343 0.0000
vt 0.0487 0.3343 0.0000
vt 0.4774 0.6193 0.0000
vt 0.4043 0.3174 0.0000
vt 0.5902 0.4349 0.0000
vt 0.3944 0.6217 0.0000
vt 0.3305 0.3575 0.0000
vt 0.3320 0.5810 0.0000
vt 0.2889 0.4209 0.0000
vt 0.2889 0.5079 0.0000
vt 0.3310 0.0430 0.0000
vt 0.4038 0.0010 0.0000
vt 0.4879 0.0010 0.0000
vt 0.2889 0.1159 0.0000
vt 0.5607 0.0430 0.0000
vt 0.2889 0.2000 0.0000
vt 0.6028 0.1159 0.0000
vt 0.3310 0.2728 0.0000
vt 0.6028 0.2000 0.0000
vt 0.2889 0.6848 0.0000
vt 0.2889 0.6808 0.0000
vt 0.2944 0.6808 0.0000
vt 0.2944 0.6848 0.0000
vt 0.3046 0.6848 0.0000
vt 0.2992 0.6848 0.0000
vt 0.2992 0.6808 0.0000
vt 0.3046 0.6808 0.0000
vt 0.3046 0.6896 0.0000
vt 0.2991 0.6896 0.0000
vt 0.2991 0.6054 0.0000
vt 0.3046 0.6054 0.0000
vt 0.3046 0.6102 0.0000
vt 0.2992 0.6102 0.0000
vt 0.2889 0.6141 0.0000
vt 0.2944 0.6141 0.0000
vt 0.2992 0.6141 0.0000
vt 0.3046 0.6141 0.0000
vt 0.3094 0.6141 0.0000
vt 0.3094 0.6808 0.0000
vt 0.2889 0.6142 0.0000
vt 0.2889 0.6102 0.0000
vt 0.2944 0.6102 0.0000
vt 0.3250 0.6100 0.0000
vt 0.3250 0.6140 0.0000
vt 0.3250 0.6052 0.0000
vt 0.3046 0.6014 0.0000
vt 0.3249 0.6013 0.0000
vt 0.3047 0.6189 0.0000
vt 0.3251 0.6188 0.0000
vt 0.3046 0.6936 0.0000
vt 0.3250 0.6897 0.0000
vt 0.3250 0.6938 0.0000
vt 0.3250 0.6850 0.0000
vt 0.3250 0.6809 0.0000
vt 0.3047 0.6760 0.0000
vt 0.3251 0.6761 0.0000
vt 0.3251 0.7052 0.0000
vt 0.3251 0.7092 0.0000
vt 0.3196 0.7092 0.0000
vt 0.3196 0.7052 0.0000
vt 0.3094 0.7052 0.0000
vt 0.3148 0.7052 0.0000
vt 0.3148 0.7092 0.0000
vt 0.3094 0.7092 0.0000
vt 0.3094 0.7004 0.0000
vt 0.3149 0.7004 0.0000
vt 0.3148 0.7846 0.0000
vt 0.3094 0.7846 0.0000
vt 0.3094 0.7798 0.0000
vt 0.3148 0.7798 0.0000
vt 0.3251 0.7759 0.0000
vt 0.3196 0.7759 0.0000
vt 0.3148 0.7759 0.0000
vt 0.3094 0.7759 0.0000
vt 0.3046 0.7759 0.0000
vt 0.3046 0.7092 0.0000
vt 0.3094 0.7886 0.0000
vt 0.3148 0.7886 0.0000
vt 0.3196 0.7798 0.0000
vt 0.2890 0.7799 0.0000
vt 0.2890 0.7759 0.0000
vt 0.2890 0.7847 0.0000
vt 0.2890 0.7886 0.0000
vt 0.3094 0.7711 0.0000
vt 0.2890 0.7711 0.0000
vt 0.3095 0.6964 0.0000
vt 0.2890 0.7002 0.0000
vt 0.2891 0.6962 0.0000
vt 0.2890 0.7050 0.0000
vt 0.2890 0.7091 0.0000
vt 0.3093 0.7140 0.0000
vt 0.2889 0.7138 0.0000
# 188 texture coords

o log
g log
usemtl wire_153228153
s 1
f 1/1/1 2/2/2 3/3/3 
s 2
f 3/4/3 2/5/2 4/6/4 5/7/5 
f 2/5/2 6/8/6 7/9/7 4/6/4 
f 6/8/6 8/10/8 9/11/9 7/9/7 
f 8/10/8 10/12/10 11/13/11 9/11/9 
f 10/12/10 12/14/12 13/15/13 11/13/11 
f 12/14/12 14/16/14 15/17/15 13/15/13 
f 14/16/14 16/18/16 17/19/17 15/17/15 
f 16/20/16 18/21/18 19/22/19 17/23/17 
f 18/21/18 20/24/20 21/25/21 19/22/19 
f 20/24/20 22/26/22 23/27/23 21/25/21 
f 22/26/22 1/28/1 24/29/24 23/27/23 
f 1/28/1 3/4/3 5/7/5 24/29/24 
s 1
f 25/30/25 26/31/26 27/32/27 28/33/28 
s 2
f 4/6/4 29/34/29 30/35/30 5/7/5 
f 7/9/7 31/36/31 29/34/29 4/6/4 
f 9/11/9 32/37/32 31/36/31 7/9/7 
f 11/13/11 33/38/33 32/37/32 9/11/9 
f 13/15/13 34/39/34 33/38/33 11/13/11 
f 15/17/15 35/40/35 34/39/34 13/15/13 
f 17/19/17 36/41/36 35/40/35 15/17/15 
f 19/22/19 37/42/37 36/43/36 17/23/17 
f 21/25/21 38/44/38 37/42/37 19/22/19 
f 23/27/23 39/45/39 38/44/38 21/25/21 
f 24/29/24 40/46/40 39/45/39 23/27/23 
f 5/7/5 30/35/30 40/46/40 24/29/24 
f 41/47/41 26/48/26 42/49/42 43/50/43 
f 44/51/44 27/52/27 26/48/26 41/47/41 
f 45/53/45 46/54/46 27/52/27 44/51/44 
f 47/55/47 48/56/48 46/54/46 45/53/45 
f 49/57/49 50/58/50 48/56/48 47/55/47 
f 51/59/51 52/60/52 50/58/50 49/57/49 
f 53/61/53 54/62/54 52/60/52 51/59/51 
f 55/63/55 56/64/56 54/65/54 53/66/53 
f 57/67/57 58/68/58 56/64/56 55/63/55 
f 59/69/59 28/70/28 58/68/58 57/67/57 
f 60/71/60 25/72/25 28/70/28 59/69/59 
f 43/50/43 42/49/42 25/72/25 60/71/60 
s 1
f 61/73/61 62/74/62 63/75/63 64/76/64 
f 65/77/65 66/78/66 62/74/62 61/73/61 
f 67/79/67 68/80/68 66/78/66 65/77/65 
f 69/81/69 70/82/70 68/80/68 67/79/67 
f 71/83/71 72/84/72 70/82/70 69/81/69 
f 73/85/73 74/86/74 72/84/72 71/83/71 
f 75/87/75 76/88/76 74/86/74 73/85/73 
f 77/89/77 78/90/78 76/91/76 75/92/75 
f 79/93/79 80/94/80 78/90/78 77/89/77 
f 81/95/81 82/96/82 80/94/80 79/93/79 
f 83/97/83 84/98/84 82/96/82 81/95/81 
f 64/76/64 63/75/63 84/98/84 83/97/83 
s 4
f 41/47/41 43/50/43 63/75/63 62/74/62 
f 43/50/43 60/71/60 84/98/84 63/75/63 
f 60/71/60 59/69/59 82/96/82 84/98/84 
f 59/69/59 57/67/57 80/94/80 82/96/82 
f 57/67/57 55/63/55 78/90/78 80/94/80 
f 55/63/55 53/66/53 76/91/76 78/90/78 
f 53/61/53 51/59/51 74/86/74 76/88/76 
f 51/59/51 49/57/49 72/84/72 74/86/74 
f 49/57/49 47/55/47 70/82/70 72/84/72 
f 47/55/47 45/53/45 68/80/68 70/82/70 
f 45/53/45 44/51/44 66/78/66 68/80/68 
f 44/51/44 41/47/41 62/74/62 66/78/66 
f 30/35/30 29/34/29 61/73/61 64/76/64 
f 29/34/29 31/36/31 65/77/65 61/73/61 
f 31/36/31 32/37/32 67/79/67 65/77/65 
f 32/37/32 33/38/33 69/81/69 67/79/67 
f 33/38/33 34/39/34 71/83/71 69/81/69 
f 34/39/34 35/40/35 73/85/73 71/83/71 
f 35/40/35 36/41/36 75/87/75 73/85/73 
f 36/43/36 37/42/37 77/89/77 75/92/75 
f 37/42/37 38/44/38 79/93/79 77/89/77 
f 38/44/38 39/45/39 81/95/81 79/93/79 
f 39/45/39 40/46/40 83/97/83 81/95/81 
f 40/46/40 30/35/30 64/76/64 83/97/83 
s 1
f 27/32/27 46/99/46 58/100/58 28/33/28 
f 25/30/25 42/101/42 26/31/26 
f 46/99/46 48/102/48 56/103/56 58/100/58 
f 48/102/48 50/104/50 54/105/54 56/103/56 
f 50/104/50 52/106/52 54/105/54 
f 16/107/16 14/108/14 12/109/12 
f 18/110/18 16/107/16 12/109/12 10/111/10 
f 20/112/20 18/110/18 10/111/10 8/113/8 
f 22/114/22 20/112/20 8/113/8 6/115/6 
f 1/1/1 22/114/22 6/115/6 2/2/2 
f 85/116/85 86/117/86 87/118/87 88/119/88 
f 89/120/89 90/121/90 91/122/91 92/123/92 
s 2
f 85/124/85 88/125/88 90/121/90 89/120/89 
s 4
f 88/119/88 87/118/87 91/122/91 90/121/90 
s 2
f 93/126/93 94/127/94 95/128/95 96/129/96 
s 1
f 86/117/86 97/130/97 98/131/87 87/118/87 
f 91/122/91 99/132/91 100/133/98 92/123/92 
s 4
f 87/118/87 98/131/87 99/132/91 91/122/91 
s 2
f 97/134/97 86/135/86 92/123/92 100/133/98 
s 1
f 97/136/97 94/137/94 93/138/93 98/131/87 
f 99/132/91 96/129/96 95/128/95 100/133/98 
s 4
f 98/131/87 93/138/93 96/129/96 99/132/91 
s 1
f 100/133/98 95/128/95 101/139/95 102/140/99 
s 2
f 95/128/95 94/127/94 103/141/94 101/139/95 
s 1
f 94/127/94 97/142/97 104/143/100 103/141/94 
s 4
f 97/144/97 100/133/98 102/140/99 104/145/100 
s 1
f 86/146/86 85/124/85 105/147/100 106/148/94 
s 2
f 85/124/85 89/120/89 107/149/99 105/147/100 
s 1
f 89/120/89 92/123/92 108/150/95 107/149/99 
s 4
f 92/123/92 86/151/86 106/152/94 108/150/95 
s 1
f 109/153/94 110/154/101 111/155/102 112/156/103 
f 113/157/95 114/158/104 115/159/105 116/160/106 
s 2
f 109/161/94 112/162/103 114/158/104 113/157/95 
s 4
f 112/156/103 111/155/102 115/159/105 114/158/104 
s 2
f 117/163/107 118/164/85 119/165/89 120/166/108 
s 1
f 110/154/101 121/167/109 122/168/110 111/155/102 
f 115/159/105 123/169/111 124/170/112 116/160/106 
s 4
f 111/155/102 122/168/110 123/169/111 115/159/105 
s 2
f 121/171/109 110/172/101 116/160/106 124/170/112 
s 1
f 121/173/109 118/164/85 117/163/107 122/174/110 
f 123/169/111 120/166/108 119/165/89 124/170/112 
s 4
f 122/168/110 117/175/107 120/166/108 123/169/111 
s 1
f 124/170/112 119/165/89 125/176/99 126/177/113 
s 2
f 119/165/89 118/164/85 127/178/100 125/176/99 
s 1
f 118/164/85 121/173/109 128/179/114 127/178/100 
s 4
f 121/180/109 124/170/112 126/177/113 128/181/114 
s 1
f 110/182/101 109/161/94 129/183/114 130/184/85 
s 2
f 109/161/94 113/157/95 131/185/113 129/183/114 
s 1
f 113/157/95 116/160/106 132/186/89 131/185/113 
s 4
f 116/160/106 110/187/101 130/188/85 132/186/89 
# 120 polygons - 4 triangles

